<svg xmlns="http://www.w3.org/2000/svg" viewBox="0 0 1200 800"><defs><radialGradient id="bg" cx="50%" cy="55%" r="65%"><stop offset="0%" stop-color="#2e2010"/><stop offset="100%" stop-color="#180e06"/></radialGradient><radialGradient id="glow" cx="50%" cy="50%" r="50%"><stop offset="0%" stop-color="#7a6010" stop-opacity="0.35"/><stop offset="100%" stop-color="#7a6010" stop-opacity="0"/></radialGradient><clipPath id="tc"><path d="M370 398 Q480 358 535 372 Q562 346 600 350 Q638 346 665 372 Q720 358 830 398 L830 452 L370 452Z"/></clipPath></defs><rect width="1200" height="800" fill="url(#bg)"/><ellipse cx="580" cy="410" rx="310" ry="215" fill="url(#glow)"/><path d="M355 392 Q435 355 515 368 Q556 342 600 348 Q644 342 685 368 Q765 355 845 392 Q715 492 600 500 Q485 492 355 392Z" fill="#7a4030"/><path d="M355 392 Q435 355 515 368 Q556 342 600 348 Q644 342 685 368 Q765 355 845 392" fill="none" stroke="#a05848" stroke-width="7" stroke-linecap="round"/><path d="M440 444 Q600 488 760 444" fill="none" stroke="#905045" stroke-width="5" stroke-linecap="round" opacity="0.45"/><g clip-path="url(#tc)"><rect x="370" y="350" width="78" height="102" rx="9" fill="#c2ac3c"/><rect x="448" y="346" width="74" height="106" rx="9" fill="#cab240"/><rect x="522" y="342" width="78" height="110" rx="9" fill="#d2bc44"/><rect x="600" y="342" width="78" height="110" rx="9" fill="#cebc40"/><rect x="678" y="346" width="74" height="106" rx="9" fill="#c8b23e"/><rect x="752" y="350" width="78" height="102" rx="9" fill="#beaa38"/><rect x="370" y="350" width="460" height="102" fill="#5a3a00" opacity="0.18"/><line x1="448" y1="344" x2="448" y2="452" stroke="#7a6020" stroke-width="1.5" opacity="0.6"/><line x1="522" y1="340" x2="522" y2="452" stroke="#7a6020" stroke-width="1.5" opacity="0.6"/><line x1="600" y1="340" x2="600" y2="452" stroke="#7a6020" stroke-width="1.5" opacity="0.6"/><line x1="678" y1="340" x2="678" y2="452" stroke="#7a6020" stroke-width="1.5" opacity="0.6"/><line x1="752" y1="344" x2="752" y2="452" stroke="#7a6020" stroke-width="1.5" opacity="0.6"/></g><ellipse cx="600" cy="470" rx="205" ry="32" fill="#0e0700" opacity="0.65"/><g fill="none" stroke-linecap="round"><path d="M858 358 Q895 334 928 312 Q958 292 980 268" stroke="#9c9822" stroke-width="3.5" opacity="0.8"/><path d="M862 402 Q902 384 938 366 Q970 350 998 332" stroke="#8c8e1a" stroke-width="3" opacity="0.75"/><path d="M858 446 Q896 432 930 419 Q962 407 988 392" stroke="#9a9820" stroke-width="2.5" opacity="0.7"/><path d="M878 326 Q897 310 916 326 Q935 342 954 326 Q973 310 992 326 Q1011 342 1030 326" stroke="#b0ae2c" stroke-width="2.5" opacity="0.6"/><path d="M874 474 Q893 459 912 474 Q931 489 950 474 Q969 459 988 474" stroke="#a0a020" stroke-width="2" opacity="0.55"/></g><circle cx="942" cy="348" r="5.5" fill="#9c9820" opacity="0.55"/><circle cx="978" cy="316" r="4" fill="#aeac28" opacity="0.5"/><circle cx="964" cy="398" r="5" fill="#8c8c18" opacity="0.55"/><circle cx="1004" cy="366" r="3.5" fill="#a4a224" opacity="0.5"/><circle cx="1016" cy="428" r="4.5" fill="#969615" opacity="0.5"/><g stroke="#9a9820" stroke-width="2.8" stroke-linecap="round" opacity="0.45"><line x1="1026" y1="292" x2="1042" y2="308"/><line x1="1042" y1="292" x2="1026" y2="308"/><line x1="1055" y1="352" x2="1068" y2="365"/><line x1="1068" y1="352" x2="1055" y2="365"/><line x1="1036" y1="446" x2="1049" y2="459"/><line x1="1049" y1="446" x2="1036" y2="459"/></g><text x="600" y="596" text-anchor="middle" font-family="Georgia,serif" font-size="20" fill="#b89828" letter-spacing="9" opacity="0.45" font-style="italic">Avant le Siwak</text></svg>